<mxfile host="app.diagrams.net" modified="2021-08-12T02:19:25.090Z" agent="5.0 (Macintosh; Intel Mac OS X 10_15_6) AppleWebKit/537.36 (KHTML, like Gecko) Chrome/92.0.4515.107 Safari/537.36" etag="Edodt5PnEljrNBBrjRah" version="14.9.4" type="github">
  <diagram id="bEoqlhoRj2HXZkrtW6sc" name="第 1 页">
    <mxGraphModel dx="1426" dy="749" grid="1" gridSize="10" guides="1" tooltips="1" connect="1" arrows="1" fold="1" page="1" pageScale="1" pageWidth="827" pageHeight="1169" math="0" shadow="0">
      <root>
        <mxCell id="0" />
        <mxCell id="1" parent="0" />
        <mxCell id="R_QaOYlg23V8EjBYyU8c-10" style="edgeStyle=orthogonalEdgeStyle;rounded=0;orthogonalLoop=1;jettySize=auto;html=1;exitX=1;exitY=0.5;exitDx=0;exitDy=0;entryX=0;entryY=0.5;entryDx=0;entryDy=0;" edge="1" parent="1" source="R_QaOYlg23V8EjBYyU8c-1" target="R_QaOYlg23V8EjBYyU8c-2">
          <mxGeometry relative="1" as="geometry" />
        </mxCell>
        <mxCell id="R_QaOYlg23V8EjBYyU8c-11" value="生成" style="edgeLabel;html=1;align=center;verticalAlign=middle;resizable=0;points=[];" vertex="1" connectable="0" parent="R_QaOYlg23V8EjBYyU8c-10">
          <mxGeometry x="-0.12" y="1" relative="1" as="geometry">
            <mxPoint as="offset" />
          </mxGeometry>
        </mxCell>
        <mxCell id="R_QaOYlg23V8EjBYyU8c-1" value="注解" style="ellipse;whiteSpace=wrap;html=1;aspect=fixed;" vertex="1" parent="1">
          <mxGeometry x="130" y="160" width="80" height="80" as="geometry" />
        </mxCell>
        <mxCell id="R_QaOYlg23V8EjBYyU8c-13" value="输出" style="edgeStyle=orthogonalEdgeStyle;rounded=0;orthogonalLoop=1;jettySize=auto;html=1;entryX=0;entryY=0.5;entryDx=0;entryDy=0;" edge="1" parent="1" source="R_QaOYlg23V8EjBYyU8c-2" target="R_QaOYlg23V8EjBYyU8c-3">
          <mxGeometry relative="1" as="geometry" />
        </mxCell>
        <mxCell id="R_QaOYlg23V8EjBYyU8c-2" value="文档" style="ellipse;whiteSpace=wrap;html=1;aspect=fixed;" vertex="1" parent="1">
          <mxGeometry x="310" y="160" width="80" height="80" as="geometry" />
        </mxCell>
        <mxCell id="R_QaOYlg23V8EjBYyU8c-15" style="edgeStyle=orthogonalEdgeStyle;rounded=0;orthogonalLoop=1;jettySize=auto;html=1;entryX=0.5;entryY=0;entryDx=0;entryDy=0;strokeColor=#FF3333;endArrow=async;endFill=1;" edge="1" parent="1">
          <mxGeometry relative="1" as="geometry">
            <mxPoint x="528" y="240" as="sourcePoint" />
            <mxPoint x="528" y="330" as="targetPoint" />
          </mxGeometry>
        </mxCell>
        <mxCell id="R_QaOYlg23V8EjBYyU8c-3" value="对外openAPI" style="ellipse;whiteSpace=wrap;html=1;aspect=fixed;" vertex="1" parent="1">
          <mxGeometry x="480" y="160" width="80" height="80" as="geometry" />
        </mxCell>
        <mxCell id="R_QaOYlg23V8EjBYyU8c-5" style="edgeStyle=orthogonalEdgeStyle;rounded=0;orthogonalLoop=1;jettySize=auto;html=1;strokeColor=#FF3333;" edge="1" parent="1" source="R_QaOYlg23V8EjBYyU8c-4" target="R_QaOYlg23V8EjBYyU8c-3">
          <mxGeometry relative="1" as="geometry" />
        </mxCell>
        <mxCell id="R_QaOYlg23V8EjBYyU8c-22" value="request" style="edgeLabel;html=1;align=center;verticalAlign=middle;resizable=0;points=[];" vertex="1" connectable="0" parent="R_QaOYlg23V8EjBYyU8c-5">
          <mxGeometry y="-1" relative="1" as="geometry">
            <mxPoint as="offset" />
          </mxGeometry>
        </mxCell>
        <mxCell id="R_QaOYlg23V8EjBYyU8c-4" value="Actor" style="shape=umlActor;verticalLabelPosition=bottom;verticalAlign=top;html=1;outlineConnect=0;" vertex="1" parent="1">
          <mxGeometry x="505" y="30" width="30" height="60" as="geometry" />
        </mxCell>
        <mxCell id="R_QaOYlg23V8EjBYyU8c-8" style="edgeStyle=orthogonalEdgeStyle;rounded=0;orthogonalLoop=1;jettySize=auto;html=1;entryX=0.5;entryY=1;entryDx=0;entryDy=0;" edge="1" parent="1" source="R_QaOYlg23V8EjBYyU8c-7" target="R_QaOYlg23V8EjBYyU8c-1">
          <mxGeometry relative="1" as="geometry" />
        </mxCell>
        <mxCell id="R_QaOYlg23V8EjBYyU8c-9" value="适配" style="edgeLabel;html=1;align=center;verticalAlign=middle;resizable=0;points=[];" vertex="1" connectable="0" parent="R_QaOYlg23V8EjBYyU8c-8">
          <mxGeometry x="-0.0222" y="1" relative="1" as="geometry">
            <mxPoint as="offset" />
          </mxGeometry>
        </mxCell>
        <mxCell id="R_QaOYlg23V8EjBYyU8c-19" style="edgeStyle=orthogonalEdgeStyle;rounded=0;orthogonalLoop=1;jettySize=auto;html=1;entryX=0;entryY=0.25;entryDx=0;entryDy=0;entryPerimeter=0;endArrow=openAsync;endFill=0;strokeColor=#FF3333;exitX=1;exitY=0.25;exitDx=0;exitDy=0;exitPerimeter=0;" edge="1" parent="1">
          <mxGeometry relative="1" as="geometry">
            <mxPoint x="210" y="360" as="sourcePoint" />
            <mxPoint x="480" y="360" as="targetPoint" />
          </mxGeometry>
        </mxCell>
        <mxCell id="R_QaOYlg23V8EjBYyU8c-7" value="controller接口" style="ellipse;whiteSpace=wrap;html=1;aspect=fixed;" vertex="1" parent="1">
          <mxGeometry x="130" y="330" width="80" height="80" as="geometry" />
        </mxCell>
        <mxCell id="R_QaOYlg23V8EjBYyU8c-17" style="edgeStyle=orthogonalEdgeStyle;rounded=0;orthogonalLoop=1;jettySize=auto;html=1;entryX=1;entryY=0.5;entryDx=0;entryDy=0;strokeColor=#FF3333;endArrow=openAsync;endFill=0;" edge="1" parent="1">
          <mxGeometry relative="1" as="geometry">
            <mxPoint x="480" y="378" as="sourcePoint" />
            <mxPoint x="210" y="378" as="targetPoint" />
          </mxGeometry>
        </mxCell>
        <mxCell id="R_QaOYlg23V8EjBYyU8c-18" value="转换请求参数" style="edgeLabel;html=1;align=center;verticalAlign=middle;resizable=0;points=[];" vertex="1" connectable="0" parent="R_QaOYlg23V8EjBYyU8c-17">
          <mxGeometry x="0.1407" relative="1" as="geometry">
            <mxPoint as="offset" />
          </mxGeometry>
        </mxCell>
        <mxCell id="R_QaOYlg23V8EjBYyU8c-20" style="edgeStyle=orthogonalEdgeStyle;rounded=0;orthogonalLoop=1;jettySize=auto;html=1;entryX=0.5;entryY=1;entryDx=0;entryDy=0;endArrow=async;endFill=1;strokeColor=#FF3333;" edge="1" parent="1">
          <mxGeometry relative="1" as="geometry">
            <mxPoint x="514" y="330" as="sourcePoint" />
            <mxPoint x="514" y="240" as="targetPoint" />
          </mxGeometry>
        </mxCell>
        <mxCell id="R_QaOYlg23V8EjBYyU8c-21" value="转换返回值" style="edgeLabel;html=1;align=center;verticalAlign=middle;resizable=0;points=[];rotation=0;" vertex="1" connectable="0" parent="R_QaOYlg23V8EjBYyU8c-20">
          <mxGeometry x="0.0222" relative="1" as="geometry">
            <mxPoint x="-24" as="offset" />
          </mxGeometry>
        </mxCell>
        <mxCell id="R_QaOYlg23V8EjBYyU8c-14" value="highway网关" style="ellipse;whiteSpace=wrap;html=1;aspect=fixed;" vertex="1" parent="1">
          <mxGeometry x="480" y="330" width="80" height="80" as="geometry" />
        </mxCell>
        <mxCell id="R_QaOYlg23V8EjBYyU8c-23" value="" style="rounded=1;whiteSpace=wrap;html=1;fillColor=none;strokeColor=#3333FF;strokeWidth=2;" vertex="1" parent="1">
          <mxGeometry x="100" y="160" width="470" height="80" as="geometry" />
        </mxCell>
        <mxCell id="R_QaOYlg23V8EjBYyU8c-24" value="A" style="text;html=1;strokeColor=none;fillColor=none;align=center;verticalAlign=middle;whiteSpace=wrap;rounded=0;strokeWidth=3;fontSize=22;fontColor=#3333FF;" vertex="1" parent="1">
          <mxGeometry x="50" y="190" width="40" height="20" as="geometry" />
        </mxCell>
      </root>
    </mxGraphModel>
  </diagram>
</mxfile>
